<?xml version="1.0" encoding="utf-8"?>
<!-- Generator: Adobe Illustrator 24.0.0, SVG Export Plug-In . SVG Version: 6.00 Build 0)  -->
<svg version="1.1" id="Layer_1" xmlns="http://www.w3.org/2000/svg" xmlns:xlink="http://www.w3.org/1999/xlink" x="0px" y="0px"
	 viewBox="0 0 800 600" style="enable-background:new 0 0 800 600;" xml:space="preserve">
<style type="text/css">
	.st0{fill:url(#SVGID_1_);}
	.st1{fill:#231F20;}
	.st2{fill:url(#SVGID_2_);}
	.st3{fill:url(#SVGID_3_);}
	.st4{fill:url(#SVGID_4_);}
	.st5{fill:url(#SVGID_5_);}
	.st6{fill:url(#SVGID_6_);}
	.st7{fill:url(#SVGID_7_);}
	.st8{fill:url(#SVGID_8_);}
	.st9{fill:url(#SVGID_9_);}
	.st10{fill:none;stroke:#231F20;stroke-width:1.6364;}
	.st11{fill:#FFFFFF;}
</style>
<g>
	<g>
		<linearGradient id="SVGID_1_" gradientUnits="userSpaceOnUse" x1="221.104" y1="478.8925" x2="578.8961" y2="121.1003">
			<stop  offset="0" style="stop-color:#696A6C"/>
			<stop  offset="0.5" style="stop-color:#E2E3E4"/>
			<stop  offset="1" style="stop-color:#696A6C"/>
		</linearGradient>
		<path class="st0" d="M653,300c0,139.7-113.3,253-253,253S147,439.7,147,300S260.3,47,400,47S653,160.3,653,300z"/>
		<path class="st1" d="M638.3,300c0,131.6-106.7,238.3-238.3,238.3c-131.6,0-238.3-106.7-238.3-238.3
			c0-131.6,106.7-238.3,238.3-238.3C531.6,61.7,638.3,168.4,638.3,300z"/>
		<radialGradient id="SVGID_2_" cx="322.7198" cy="217.1103" r="159.8778" gradientUnits="userSpaceOnUse">
			<stop  offset="5.618000e-03" style="stop-color:#FFFFFF"/>
			<stop  offset="1" style="stop-color:#231F20"/>
		</radialGradient>
		<path class="st2" d="M578.5,300c0,98.6-79.9,178.5-178.5,178.5c-98.6,0-178.5-79.9-178.5-178.5c0-98.6,79.9-178.5,178.5-178.5
			C498.6,121.5,578.5,201.4,578.5,300z"/>
		<linearGradient id="SVGID_3_" gradientUnits="userSpaceOnUse" x1="273.8015" y1="173.7917" x2="485.4303" y2="385.4205">
			<stop  offset="5.618000e-03" style="stop-color:#231F20"/>
			<stop  offset="1" style="stop-color:#A6A8AB"/>
		</linearGradient>
		<path class="st3" d="M524.5,292.5c-3.9-65.4-58.1-117.3-124.5-117.3c-68.9,0-124.7,55.8-124.7,124.7c0,42.6,21.3,80.2,53.9,102.7
			l-22.6,49.4c-51-31.4-85-87.8-85-152.1c0-98.6,79.9-178.5,178.5-178.5c96.1,0,174.4,75.9,178.3,171H524.5z"/>
		<linearGradient id="SVGID_4_" gradientUnits="userSpaceOnUse" x1="216.8587" y1="433.0844" x2="533.1528" y2="116.7904">
			<stop  offset="5.618000e-03" style="stop-color:#A6A8AB"/>
			<stop  offset="0.1573" style="stop-color:#D0D2D3"/>
			<stop  offset="0.3483" style="stop-color:#FFFFFF"/>
			<stop  offset="0.8034" style="stop-color:#FFFFFF"/>
			<stop  offset="1" style="stop-color:#A6A8AB"/>
		</linearGradient>
		<path class="st4" d="M287.6,493.3C221.1,454.6,176.4,382.5,176.4,300c0-123.5,100.1-223.7,223.7-223.7
			c121,0,219.6,96.1,223.5,216.2H543c-3.9-75.5-66.4-135.6-142.9-135.6C321,156.9,257,221,257,300c0,50,25.7,94,64.5,119.6
			L287.6,493.3z"/>
		<g>
			<g>
				<linearGradient id="SVGID_5_" gradientUnits="userSpaceOnUse" x1="400" y1="141.1275" x2="400" y2="76.3374">
					<stop  offset="0" style="stop-color:#E2E3E4"/>
					<stop  offset="1" style="stop-color:#696A6C"/>
				</linearGradient>
				<path class="st5" d="M430.3,78.4c-10.1-1.4-20.4-2.1-30.8-2.1c-10.1,0-20.1,0.7-29.8,2C369.7,78.3,397.5,219.6,430.3,78.4z"/>
				<path class="st1" d="M430.3,78.4c-10.1-1.4-20.4-2.1-30.8-2.1c-10.1,0-20.1,0.7-29.8,2C369.7,78.3,397.5,186.8,430.3,78.4z"/>
			</g>
			<g>
				
					<linearGradient id="SVGID_6_" gradientUnits="userSpaceOnUse" x1="348.8756" y1="461.6513" x2="348.8756" y2="396.8669" gradientTransform="matrix(0.7989 -0.6015 0.6015 0.7989 -251.9532 14.1332)">
					<stop  offset="0" style="stop-color:#E2E3E4"/>
					<stop  offset="1" style="stop-color:#696A6C"/>
				</linearGradient>
				<path class="st6" d="M291,104.8c-8.9,4.9-17.5,10.6-25.9,16.9c-8.1,6.1-15.7,12.6-22.7,19.5C242.4,141.2,349.7,237.2,291,104.8z
					"/>
				<path class="st1" d="M291,104.8c-8.9,4.9-17.5,10.6-25.9,16.9c-8.1,6.1-15.7,12.6-22.7,19.5C242.4,141.2,329.9,211.1,291,104.8z
					"/>
			</g>
			<g>
				
					<linearGradient id="SVGID_7_" gradientUnits="userSpaceOnUse" x1="113.0533" y1="688.4797" x2="113.0533" y2="623.6788" gradientTransform="matrix(0.2727 -0.9621 0.9621 0.2727 -446.0584 177.7562)">
					<stop  offset="0" style="stop-color:#E2E3E4"/>
					<stop  offset="1" style="stop-color:#696A6C"/>
				</linearGradient>
				<path class="st7" d="M195.1,210.5c-4.1,9.3-7.6,19-10.4,29.1c-2.8,9.7-4.8,19.5-6.2,29.3C178.4,268.8,321.9,280.5,195.1,210.5z"
					/>
				<path class="st1" d="M195.1,210.5c-4.1,9.3-7.6,19-10.4,29.1c-2.8,9.7-4.8,19.5-6.2,29.3C178.4,268.8,290.4,271.6,195.1,210.5z"
					/>
			</g>
			<g>
				
					<linearGradient id="SVGID_8_" gradientUnits="userSpaceOnUse" x1="-450.7613" y1="-140.4058" x2="-450.7613" y2="-205.1925" gradientTransform="matrix(-0.7989 -0.6015 -0.6015 0.7989 50.9938 14.1332)">
					<stop  offset="0" style="stop-color:#E2E3E4"/>
					<stop  offset="1" style="stop-color:#696A6C"/>
				</linearGradient>
				<path class="st8" d="M509,104.8c8.9,4.9,17.5,10.6,25.9,16.9c8.1,6.1,15.6,12.6,22.7,19.5C557.6,141.2,450.4,237.2,509,104.8z"
					/>
				<path class="st1" d="M509,104.8c8.9,4.9,17.5,10.6,25.9,16.9c8.1,6.1,15.6,12.6,22.7,19.5C557.6,141.2,470.1,211.1,509,104.8z"
					/>
			</g>
			<g>
				
					<linearGradient id="SVGID_9_" gradientUnits="userSpaceOnUse" x1="-159.9077" y1="-274.5409" x2="-159.9077" y2="-339.3284" gradientTransform="matrix(-0.2727 -0.9621 -0.9621 0.2727 245.0999 177.7562)">
					<stop  offset="0" style="stop-color:#E2E3E4"/>
					<stop  offset="1" style="stop-color:#696A6C"/>
				</linearGradient>
				<path class="st9" d="M604.9,210.5c4.1,9.3,7.6,19,10.4,29.1c2.8,9.7,4.8,19.5,6.3,29.3C621.6,268.8,478.1,280.5,604.9,210.5z"/>
				<path class="st1" d="M604.9,210.5c4.1,9.3,7.6,19,10.4,29.1c2.8,9.7,4.8,19.5,6.3,29.3C621.6,268.8,509.6,271.6,604.9,210.5z"/>
			</g>
			<path class="st10" d="M623.7,300c0,123.5-100.1,223.6-223.7,223.6c-123.5,0-223.7-100.1-223.7-223.6S276.5,76.3,400,76.3
				C523.5,76.3,623.7,176.5,623.7,300z"/>
		</g>
	</g>
	<g>
		<path class="st10" d="M380.4,316.6h47c3.8,0,10.8,1.5,13.5,4.2c3.9,3.9,4.9,7.4,4.3,12.9c-1.1,9.1-4.3,14.9-15.1,17.1
			c9.3-1.9,7.6,10.9,7.2,12.2c-2.8,8.9-7.2,14.5-10.1,17.4c-4.4,4.4-13.1,7.7-22.5,7.7h-52L380.4,316.6z M383.8,373.6
			c0.9,0,17.7,0,18.7,0c3.6,0,4.8-0.1,9.9-1.5c2.2-0.6,4.5-1.9,5.4-6.8c1.6-8.7-11.1-7.6-28.1-7.6h-8l-6.2,15.9H383.8z M386,346.4
			h26.2c8.6,0,12.5-4.3,13.7-10.9c0.6-3.4-3.7-4.6-10.6-4.6H392L386,346.4z"/>
		<path class="st10" d="M441.4,388l27.7-71.4h18.2c0.6,0,22.2,0,22.8,0c11.9,0,19.1,3.3,20.6,6.8c2.2,5.4,2.5,13,0.3,18
			c-4.4,10.1-9.9,16-24.2,17.9l10.8,28.7h-22.6l-9.4-27.3h-16.4L458.6,388H441.4z M496.1,346.2c3.7,0,15.1,0.1,18.4-9.5
			c1.6-4.5-2.5-6-6.4-6h-27.2l-6.1,15.5L496.1,346.2z"/>
		<path class="st10" d="M527.7,388l27.7-71.4h44.1c0.6,0,1.1,0,1.7,0c4.8,0,11.7,0.3,15.7,4.3c4.7,4.7,4.3,14,2.9,20.2
			c-0.9,3.8-3.2,8.1-8.6,12.8c-5.9,5.1-14.3,7.3-21.6,7.3c-1.5,0-3.2,0-4.9,0h-26.7L547.4,388H527.7z M589.6,346.5
			c3.4,0,10.7-0.8,12-8c1.1-6.2-5.2-6-8-6h-24.7l-5.4,14H589.6z"/>
	</g>
	<g>
		<path class="st11" d="M380.4,316.6h47c3.8,0,10.8,1.5,13.5,4.2c3.9,3.9,4.9,7.4,4.3,12.9c-1.1,9.1-4.3,14.9-15.1,17.1
			c9.3-1.9,7.6,10.9,7.2,12.2c-2.8,8.9-7.2,14.5-10.1,17.4c-4.4,4.4-13.1,7.7-22.5,7.7h-52L380.4,316.6z M383.8,373.6
			c0.9,0,17.7,0,18.7,0c3.6,0,4.8-0.1,9.9-1.5c2.2-0.6,4.5-1.9,5.4-6.8c1.6-8.7-11.1-7.6-28.1-7.6h-8l-6.2,15.9H383.8z M386,346.4
			h26.2c8.6,0,12.5-4.3,13.7-10.9c0.6-3.4-3.7-4.6-10.6-4.6H392L386,346.4z"/>
		<path class="st11" d="M441.4,388l27.7-71.4h18.2c0.6,0,22.2,0,22.8,0c11.9,0,19.1,3.3,20.6,6.8c2.2,5.4,2.5,13,0.3,18
			c-4.4,10.1-9.9,16-24.2,17.9l10.8,28.7h-22.6l-9.4-27.3h-16.4L458.6,388H441.4z M496.1,346.2c3.7,0,15.1,0.1,18.4-9.5
			c1.6-4.5-2.5-6-6.4-6h-27.2l-6.1,15.5L496.1,346.2z"/>
		<path class="st11" d="M527.7,388l27.7-71.4h44.1c0.6,0,1.1,0,1.7,0c4.8,0,11.7,0.3,15.7,4.3c4.7,4.7,4.3,14,2.9,20.2
			c-0.9,3.8-3.2,8.1-8.6,12.8c-5.9,5.1-14.3,7.3-21.6,7.3c-1.5,0-3.2,0-4.9,0h-26.7L547.4,388H527.7z M589.6,346.5
			c3.4,0,10.7-0.8,12-8c1.1-6.2-5.2-6-8-6h-24.7l-5.4,14H589.6z"/>
	</g>
</g>
</svg>
